<svg xmlns="http://www.w3.org/2000/svg" width="79.505" height="70.388" viewBox="0 0 79.505 70.388">
  <g id="Group_18" data-name="Group 18" transform="translate(-0.368 -11.217)">
    <path id="path103" d="M40.177-125.5l-.912,4.559a3.166,3.166,0,0,1-2.735,2.736l-6.383.912a3.156,3.156,0,0,0-2.735,1.824l-.912,2.736H48.383" transform="translate(-7.808 193.341)" fill="none" stroke="#ff023d" stroke-linecap="round" stroke-linejoin="round" stroke-miterlimit="79.84" stroke-width="2" fill-rule="evenodd"/>
    <path id="path105" d="M58.706-125.5l.912,4.559a3.166,3.166,0,0,0,2.735,2.736l6.383.912a3.156,3.156,0,0,1,2.735,1.824l.912,2.736H50.5" transform="translate(-9.924 193.341)" fill="none" stroke="#ff023d" stroke-linecap="round" stroke-linejoin="round" stroke-miterlimit="79.84" stroke-width="2" fill-rule="evenodd"/>
    <ellipse id="ellipse107" cx="14.596" cy="14.595" rx="14.596" ry="14.595" transform="translate(12.305 25.886)" fill="none" stroke="#ff023d" stroke-miterlimit="79.84" stroke-width="2"/>
    <path id="path109" d="M60.5-155.5H78.736" transform="translate(-10.806 195.986)" fill="none" stroke="#ff023d" stroke-linecap="round" stroke-linejoin="round" stroke-miterlimit="79.84" stroke-width="2" fill-rule="evenodd"/>
    <path id="path111" d="M60.487-147.5H73.275" transform="translate(-10.805 195.281)" fill="none" stroke="#ff023d" stroke-linecap="round" stroke-linejoin="round" stroke-miterlimit="79.84" stroke-width="2" fill-rule="evenodd"/>
    <path id="path113" d="M60.494-163.5H76.905" transform="translate(-10.805 196.691)" fill="none" stroke="#ff023d" stroke-linecap="round" stroke-linejoin="round" stroke-miterlimit="79.84" stroke-width="2" fill-rule="evenodd"/>
    <path id="path115" d="M35.5-155.5H49.186" transform="translate(-8.602 195.986)" fill="none" stroke="#ff023d" stroke-linecap="round" stroke-linejoin="round" stroke-miterlimit="79.84" stroke-width="2" fill-rule="evenodd"/>
    <path id="path117" d="M35.5-156.919v-14.6" transform="translate(-8.602 197.398)" fill="none" stroke="#ff023d" stroke-linecap="round" stroke-linejoin="round" stroke-miterlimit="79.84" stroke-width="2" fill-rule="evenodd"/>
    <path id="path119" d="M54.959-130.882H81.867a3.14,3.14,0,0,0,3.138-3.138v-49.345a3.14,3.14,0,0,0-3.138-3.138H10.638A3.14,3.14,0,0,0,7.5-183.364v49.345a3.14,3.14,0,0,0,3.138,3.138H48.392" transform="translate(-6.132 198.719)" fill="none" stroke="#ff023d" stroke-linecap="round" stroke-linejoin="round" stroke-miterlimit="79.84" stroke-width="2" fill-rule="evenodd"/>
  </g>
</svg>
