<svg xmlns="http://www.w3.org/2000/svg" width="28" height="28" viewBox="0 0 28 28">
  <g id="_x37__stroke" transform="translate(0.251)">
    <g id="Instagram_1_">
      <rect id="Прямоугольник_113" data-name="Прямоугольник 113" width="28" height="28" transform="translate(-0.251)" fill="none"/>
      <path id="Instagram" d="M22.946,6.468A1.665,1.665,0,1,1,21.281,4.8,1.665,1.665,0,0,1,22.946,6.468ZM13.875,18.5A4.625,4.625,0,1,1,18.5,13.875,4.625,4.625,0,0,1,13.875,18.5Zm0-11.75A7.125,7.125,0,1,0,21,13.875,7.125,7.125,0,0,0,13.875,6.75Zm0-4.25c3.7,0,4.143.014,5.606.081a7.675,7.675,0,0,1,2.576.478,4.3,4.3,0,0,1,1.6,1.038,4.3,4.3,0,0,1,1.038,1.6,7.68,7.68,0,0,1,.478,2.576c.067,1.463.081,1.9.081,5.607s-.014,4.143-.081,5.606a7.675,7.675,0,0,1-.478,2.576,4.6,4.6,0,0,1-2.633,2.633,7.681,7.681,0,0,1-2.576.478c-1.463.067-1.9.081-5.606.081s-4.144-.014-5.607-.081a7.675,7.675,0,0,1-2.576-.478,4.3,4.3,0,0,1-1.6-1.038,4.3,4.3,0,0,1-1.038-1.6,7.68,7.68,0,0,1-.478-2.576c-.067-1.463-.081-1.9-.081-5.606s.014-4.143.081-5.607a7.675,7.675,0,0,1,.478-2.576A4.3,4.3,0,0,1,4.1,4.1a4.3,4.3,0,0,1,1.6-1.038,7.681,7.681,0,0,1,2.576-.478C9.731,2.514,10.17,2.5,13.875,2.5Zm0-2.5c-3.768,0-4.241.016-5.72.083A10.184,10.184,0,0,0,4.786.728a6.8,6.8,0,0,0-2.458,1.6,6.8,6.8,0,0,0-1.6,2.458A10.185,10.185,0,0,0,.083,8.154C.016,9.634,0,10.106,0,13.875s.016,4.241.083,5.72a10.185,10.185,0,0,0,.645,3.368,6.8,6.8,0,0,0,1.6,2.458,6.8,6.8,0,0,0,2.458,1.6,10.185,10.185,0,0,0,3.368.645c1.48.067,1.952.083,5.72.083s4.241-.016,5.72-.083a10.185,10.185,0,0,0,3.368-.645,7.095,7.095,0,0,0,4.058-4.058,10.185,10.185,0,0,0,.645-3.368c.067-1.48.083-1.952.083-5.72s-.016-4.241-.083-5.72a10.185,10.185,0,0,0-.645-3.368,6.8,6.8,0,0,0-1.6-2.458,6.8,6.8,0,0,0-2.458-1.6A10.185,10.185,0,0,0,19.595.083C18.115.016,17.643,0,13.875,0Z" fill="#e61343" fill-rule="evenodd"/>
    </g>
  </g>
</svg>
