<svg xmlns="http://www.w3.org/2000/svg" width="34" height="44" viewBox="0 0 34 44">
  <g id="iconfinder_290138_document_extension_w" transform="translate(-6.8 -1)">
    <path id="Контур_3" data-name="Контур 3" d="M36.8,45h-26a3.927,3.927,0,0,1-4-3.826V4.826A3.927,3.927,0,0,1,10.8,1h19a1.255,1.255,0,0,1,.8.383l9.8,9.374a1.163,1.163,0,0,1,.4.765h0V41.174A3.865,3.865,0,0,1,36.8,45Zm-6-40.748v6.313h6.6Zm8,8.226h-9a.925.925,0,0,1-1-.957V2.913h-18a1.964,1.964,0,0,0-2,1.913V41.174a1.964,1.964,0,0,0,2,1.913h26a1.964,1.964,0,0,0,2-1.913Z" fill="#1e363e" fill-rule="evenodd"/>
    <g id="Сгруппировать_2" data-name="Сгруппировать 2" transform="translate(16.825 19.365)">
      <path id="Контур_4" data-name="Контур 4" d="M28.561,30.091,30.514,20.2H33.5l-3.216,14H27.3L25,24.868,22.7,34.2H19.716L16.5,20.2h2.872l1.953,9.891L23.736,20.2h2.527Z" transform="translate(-17.525 -20.2)" fill="#1e363e"/>
    </g>
  </g>
</svg>
