<svg xmlns="http://www.w3.org/2000/svg" width="202" height="18.826" viewBox="0 0 202 18.826">
  <g id="Сгруппировать_5" data-name="Сгруппировать 5" transform="translate(-108 -13.374)">
    <path id="Контур_5" data-name="Контур 5" d="M168.1,593.1h4.22v14.751h9.088v3.426H168.1Z" transform="translate(-60.1 -579.401)" fill="#ff033e"/>
    <path id="Контур_6" data-name="Контур 6" d="M209.7,601.613c0-5.41,4.22-9.413,9.954-9.413,5.7,0,9.954,3.967,9.954,9.413s-4.22,9.413-9.954,9.413S209.7,607.023,209.7,601.613Zm15.616,0a5.7,5.7,0,1,0-5.7,5.806A5.541,5.541,0,0,0,225.316,601.613Z" transform="translate(-86.697 -578.826)" fill="#ff033e"/>
    <path id="Контур_7" data-name="Контур 7" d="M286.116,601.324h3.859v7.393a12.472,12.472,0,0,1-7.357,2.308c-5.7,0-9.918-3.931-9.918-9.413s4.22-9.413,9.99-9.413a9.655,9.655,0,0,1,7.61,3.138l-2.7,2.488a6.138,6.138,0,0,0-4.688-2.056,5.808,5.808,0,1,0-.072,11.613,6.683,6.683,0,0,0,3.282-.793v-5.266Z" transform="translate(-126.976 -578.826)" fill="#ff033e"/>
    <path id="Контур_8" data-name="Контур 8" d="M333.5,593.1h4.22v18.177H333.5Z" transform="translate(-165.849 -579.401)" fill="#ff033e"/>
    <path id="Контур_9" data-name="Контур 9" d="M356.1,601.613c0-5.482,4.22-9.413,9.882-9.413a9.4,9.4,0,0,1,7.465,3.21l-2.7,2.489a5.83,5.83,0,0,0-4.58-2.128,5.806,5.806,0,1,0,0,11.613,5.805,5.805,0,0,0,4.58-2.164l2.7,2.489a9.385,9.385,0,0,1-7.5,3.246C360.284,611.026,356.1,607.095,356.1,601.613Z" transform="translate(-180.298 -578.826)" fill="#ff033e"/>
    <path id="Контур_10" data-name="Контур 10" d="M432.7,608.9l1.443-3.174a10.653,10.653,0,0,0,5.987,1.911c2.488,0,3.5-.829,3.5-1.948,0-3.39-10.567-1.082-10.567-7.826,0-3.1,2.488-5.662,7.646-5.662a12.091,12.091,0,0,1,6.311,1.623l-1.3,3.21a10.179,10.179,0,0,0-5.049-1.443c-2.488,0-3.462.938-3.462,2.092,0,3.354,10.567,1.046,10.567,7.718,0,3.029-2.525,5.626-7.718,5.626A12.886,12.886,0,0,1,432.7,608.9Z" transform="translate(-229.272 -578.826)" fill="#1e363e"/>
    <path id="Контур_11" data-name="Контур 11" d="M484.206,596.526H478.4V593.1h15.833v3.426h-5.806v14.751h-4.22Z" transform="translate(-258.49 -579.401)" fill="#1e363e"/>
    <path id="Контур_12" data-name="Контур 12" d="M529.4,603.27V593.1h4.22v10.026c0,3.462,1.515,4.869,4.039,4.869,2.561,0,4.039-1.443,4.039-4.869V593.1h4.148v10.17c0,5.338-3.066,8.295-8.223,8.295S529.4,608.644,529.4,603.27Z" transform="translate(-291.097 -579.401)" fill="#1e363e"/>
    <path id="Контур_13" data-name="Контур 13" d="M588.8,593.1h8.259c5.951,0,10.026,3.57,10.026,9.088s-4.075,9.088-10.026,9.088H588.8Zm8.043,14.715c3.606,0,5.987-2.164,5.987-5.626s-2.38-5.626-5.987-5.626h-3.859v11.288h3.859Z" transform="translate(-329.075 -579.401)" fill="#1e363e"/>
    <path id="Контур_14" data-name="Контур 14" d="M650.4,593.1h4.22v18.177H650.4Z" transform="translate(-368.458 -579.401)" fill="#1e363e"/>
    <path id="Контур_15" data-name="Контур 15" d="M673,601.613c0-5.41,4.22-9.413,9.954-9.413,5.7,0,9.954,3.967,9.954,9.413s-4.22,9.413-9.954,9.413S673,607.023,673,601.613Zm15.652,0a5.7,5.7,0,1,0-5.7,5.806A5.541,5.541,0,0,0,688.652,601.613Z" transform="translate(-382.908 -578.826)" fill="#1e363e"/>
  </g>
</svg>
