<svg xmlns="http://www.w3.org/2000/svg" width="76.003" height="76.002" viewBox="0 0 76.003 76.002">
  <g id="Group_1" transform="translate(0.003 151.997)">
    <path id="path104" d="M0-152v76H76v-76Z" fill="none" fill-rule="evenodd"/>
    <path id="path106" d="M61.5-103.552V-82.39A4.9,4.9,0,0,1,56.6-77.5H8.393A4.9,4.9,0,0,1,3.5-82.39v-58.216A4.9,4.9,0,0,1,8.393-145.5H20.406l3.473-4.289a1.84,1.84,0,0,1,1.448-.707h14.35a1.833,1.833,0,0,1,1.448.708l3.467,4.288H56.6a4.9,4.9,0,0,1,4.893,4.893v25.054" fill="none" stroke="#ff023d" stroke-linecap="round" stroke-linejoin="round" stroke-miterlimit="79.84" stroke-width="2" fill-rule="evenodd"/>
    <path id="path108" d="M45-97l24-26,5,5L50-92l-8,3,3-8" fill="none" stroke="#ff023d" stroke-linecap="round" stroke-linejoin="round" stroke-miterlimit="79.84" stroke-width="2" fill-rule="evenodd"/>
    <path id="path110" d="M14.5-126.377v10.758a2.122,2.122,0,0,0,2.12,2.12H27.381a2.122,2.122,0,0,0,2.12-2.12v-10.758a2.122,2.122,0,0,0-2.12-2.12H16.62a2.122,2.122,0,0,0-2.12,2.12Z" fill="none" stroke="#ff023d" stroke-miterlimit="79.84" stroke-width="2" fill-rule="evenodd"/>
    <path id="path112" d="M35.5-126.377v10.758a2.122,2.122,0,0,0,2.12,2.12H48.379a2.122,2.122,0,0,0,2.12-2.12v-10.758a2.122,2.122,0,0,0-2.12-2.12H37.618A2.122,2.122,0,0,0,35.5-126.377Z" fill="none" stroke="#ff023d" stroke-miterlimit="79.84" stroke-width="2" fill-rule="evenodd"/>
    <path id="path114" d="M14.5-105.377v10.758a2.122,2.122,0,0,0,2.12,2.12H27.381a2.122,2.122,0,0,0,2.12-2.12v-10.758a2.122,2.122,0,0,0-2.12-2.12H16.62a2.122,2.122,0,0,0-2.12,2.12Z" fill="none" stroke="#ff023d" stroke-miterlimit="79.84" stroke-width="2" fill-rule="evenodd"/>
    <path id="path116" d="M29.5-142.5h6" fill="none" stroke="#ff023d" stroke-linecap="round" stroke-linejoin="round" stroke-miterlimit="79.84" stroke-width="2" fill-rule="evenodd"/>
  </g>
</svg>
