<svg xmlns="http://www.w3.org/2000/svg" width="76.003" height="76.002" viewBox="0 0 76.003 76.002">
  <g id="Group_5" transform="translate(-151.995 75.999)">
    <path id="path170" d="M151.995-76V0h76V-76Z" fill="none" fill-rule="evenodd"/>
    <path id="path172" d="M218.043-40.851a2.832,2.832,0,0,0,1.452-2.471v-20.35a2.83,2.83,0,0,0-2.828-2.828H158.325a2.83,2.83,0,0,0-2.828,2.828v20.35a2.83,2.83,0,0,0,2.828,2.828h36.418" fill="none" stroke="#ff023d" stroke-linecap="round" stroke-linejoin="round" stroke-miterlimit="79.84" stroke-width="2" fill-rule="evenodd"/>
    <path id="path174" d="M158.325-40.5A2.83,2.83,0,0,0,155.5-37.67V-17.33a2.83,2.83,0,0,0,2.828,2.828h33.855" fill="none" stroke="#ff023d" stroke-linecap="round" stroke-linejoin="round" stroke-miterlimit="79.84" stroke-width="2" fill-rule="evenodd"/>
    <path id="path176" d="M206.5-8.49a18.013,18.013,0,0,1-18.006-18,18.013,18.013,0,0,1,18.006-18,18.013,18.013,0,0,1,18.006,18A18.013,18.013,0,0,1,206.5-8.49Z" fill="none" stroke="#ff023d" stroke-miterlimit="79.84" stroke-width="2" fill-rule="evenodd"/>
    <path id="path178" d="M206.5-8.493c-4.415,0-8-8.066-8-18s3.584-18,8-18,8,8.066,8,18-3.584,18-8,18Z" fill="none" stroke="#ff023d" stroke-miterlimit="79.84" stroke-width="2" fill-rule="evenodd"/>
    <path id="path180" d="M190.5-33.5h32.091" fill="none" stroke="#ff023d" stroke-linecap="round" stroke-linejoin="round" stroke-miterlimit="79.84" stroke-width="2" fill-rule="evenodd"/>
    <path id="path182" d="M161.5-14.5v5" fill="none" stroke="#ff023d" stroke-linecap="round" stroke-linejoin="round" stroke-miterlimit="79.84" stroke-width="2" fill-rule="evenodd"/>
    <path id="path184" d="M191.4-19.5h31.1" fill="none" stroke="#ff023d" stroke-linecap="round" stroke-linejoin="round" stroke-miterlimit="79.84" stroke-width="2" fill-rule="evenodd"/>
    <path id="path186" d="M176.494-56a2.5,2.5,0,0,1,2.5,2.5,2.5,2.5,0,0,1-2.5,2.5,2.5,2.5,0,0,1-2.5-2.5A2.5,2.5,0,0,1,176.494-56Z" fill="#ff023d" fill-rule="evenodd"/>
    <path id="path188" d="M166.494-56a2.5,2.5,0,0,1,2.5,2.5,2.5,2.5,0,0,1-2.5,2.5,2.5,2.5,0,0,1-2.5-2.5A2.5,2.5,0,0,1,166.494-56Z" fill="#ff023d" fill-rule="evenodd"/>
    <path id="path190" d="M196.494-56a2.5,2.5,0,0,1,2.5,2.5,2.5,2.5,0,0,1-2.5,2.5,2.5,2.5,0,0,1-2.5-2.5A2.5,2.5,0,0,1,196.494-56Z" fill="#ff023d" fill-rule="evenodd"/>
    <path id="path192" d="M186.494-56a2.5,2.5,0,0,1,2.5,2.5,2.5,2.5,0,0,1-2.5,2.5,2.5,2.5,0,0,1-2.5-2.5A2.5,2.5,0,0,1,186.494-56Z" fill="#ff023d" fill-rule="evenodd"/>
    <path id="path194" d="M176.494-29a2.5,2.5,0,0,1,2.5,2.5,2.5,2.5,0,0,1-2.5,2.5,2.5,2.5,0,0,1-2.5-2.5A2.5,2.5,0,0,1,176.494-29Z" fill="#ff023d" fill-rule="evenodd"/>
    <path id="path196" d="M166.494-29a2.5,2.5,0,0,1,2.5,2.5,2.5,2.5,0,0,1-2.5,2.5,2.5,2.5,0,0,1-2.5-2.5A2.5,2.5,0,0,1,166.494-29Z" fill="#ff023d" fill-rule="evenodd"/>
    <path id="path198" d="M206.494-56a2.5,2.5,0,0,1,2.5,2.5,2.5,2.5,0,0,1-2.5,2.5,2.5,2.5,0,0,1-2.5-2.5A2.5,2.5,0,0,1,206.494-56Z" fill="#ff023d" fill-rule="evenodd"/>
  </g>
</svg>
