<svg xmlns="http://www.w3.org/2000/svg" width="76.005" height="76.002" viewBox="0 0 76.005 76.002">
  <g id="Group_2" transform="translate(-75.995 75.999)">
    <path id="path119" d="M75.995-76V0H152V-76Z" fill="none" fill-rule="evenodd"/>
    <path id="path121" d="M106.5-18.5l-1,4a3.472,3.472,0,0,1-3,3l-5,1a3.462,3.462,0,0,0-3,2l-1,3h20" fill="none" stroke="#ff023d" stroke-linecap="round" stroke-linejoin="round" stroke-miterlimit="79.84" stroke-width="2" fill-rule="evenodd"/>
    <path id="path123" d="M120.5-18.5l1,4a3.472,3.472,0,0,0,3,3l5,1a3.462,3.462,0,0,1,3,2l1,3h-20" fill="none" stroke="#ff023d" stroke-linecap="round" stroke-linejoin="round" stroke-miterlimit="79.84" stroke-width="2" fill-rule="evenodd"/>
    <path id="path125" d="M120.547-18.5h24.51a3.444,3.444,0,0,0,3.441-3.441V-66.057a3.444,3.444,0,0,0-3.441-3.441H82.94A3.444,3.444,0,0,0,79.5-66.057v44.115A3.444,3.444,0,0,0,82.94-18.5h32.4" fill="none" stroke="#ff023d" stroke-linecap="round" stroke-linejoin="round" stroke-miterlimit="79.84" stroke-width="2" fill-rule="evenodd"/>
    <path id="path127" d="M101.9-33.41,94.49-43.831,101.9-54.253" fill="none" stroke="#ff023d" stroke-linecap="round" stroke-linejoin="round" stroke-miterlimit="79.84" stroke-width="2" fill-rule="evenodd"/>
    <path id="path129" d="M126.106-54.253l7.407,10.422L126.106-33.41" fill="none" stroke="#ff023d" stroke-linecap="round" stroke-linejoin="round" stroke-miterlimit="79.84" stroke-width="2" fill-rule="evenodd"/>
    <path id="path131" d="M120.175-58.5,107.827-29.166" fill="none" stroke="#ff023d" stroke-linecap="round" stroke-linejoin="round" stroke-miterlimit="79.84" stroke-width="2" fill-rule="evenodd"/>
  </g>
</svg>
