<svg xmlns="http://www.w3.org/2000/svg" width="76.003" height="76.002" viewBox="0 0 76.003 76.002">
  <g id="Group_4" transform="translate(-151.995 151.997)">
    <path id="path147" d="M151.995-152v76h76v-76Z" fill="none" fill-rule="evenodd"/>
    <path id="path149" d="M217.995-137a2,2,0,0,1,2,2,2,2,0,0,1-2,2,2,2,0,0,1-2-2A2,2,0,0,1,217.995-137Z" fill="#ff023d" fill-rule="evenodd"/>
    <path id="path151" d="M210.995-137a2,2,0,0,1,2,2,2,2,0,0,1-2,2,2,2,0,0,1-2-2A2,2,0,0,1,210.995-137Z" fill="#ff023d" fill-rule="evenodd"/>
    <path id="path153" d="M204-137a2,2,0,0,1,2,2,2,2,0,0,1-2,2,2,2,0,0,1-2-2A2,2,0,0,1,204-137Z" fill="#ff023d" fill-rule="evenodd"/>
    <path id="path155" d="M186.5-123.5h17.509" fill="none" stroke="#ff023d" stroke-linecap="round" stroke-linejoin="round" stroke-miterlimit="79.84" stroke-width="2" fill-rule="evenodd"/>
    <path id="path157" d="M186.465-87.5h35.59A3.444,3.444,0,0,0,225.5-90.94v-48.115a3.444,3.444,0,0,0-3.441-3.441H158.939a3.444,3.444,0,0,0-3.441,3.441V-90.94a3.444,3.444,0,0,0,3.441,3.441h9.526" fill="none" stroke="#ff023d" stroke-linecap="round" stroke-linejoin="round" stroke-miterlimit="79.84" stroke-width="2" fill-rule="evenodd"/>
    <path id="path159" d="M179.5-122.56v-3.817a2.122,2.122,0,0,0-2.12-2.12H166.617a2.122,2.122,0,0,0-2.12,2.12v7.758a2.122,2.122,0,0,0,2.12,2.12h5.1" fill="none" stroke="#ff023d" stroke-linecap="round" stroke-linejoin="round" stroke-miterlimit="79.84" stroke-width="2" fill-rule="evenodd"/>
    <path id="path161" d="M225.5-122.5l-22,24" fill="none" stroke="#ff023d" stroke-linecap="round" stroke-linejoin="round" stroke-miterlimit="79.84" stroke-width="2" fill-rule="evenodd"/>
    <path id="path163" d="M216.972-101.973,204-87.824" fill="none" stroke="#ff023d" stroke-linecap="round" stroke-linejoin="round" stroke-miterlimit="79.84" stroke-width="2" fill-rule="evenodd"/>
    <path id="path165" d="M190.661-97.991l-8.755-2.7a2.061,2.061,0,0,1-1.215-1.216l-2.7-8.756c-.549-1.78-1.44-1.78-1.989,0l-2.7,8.756a2.061,2.061,0,0,1-1.215,1.216l-8.755,2.7c-1.781.549-1.781,1.44,0,1.989l8.753,2.7a2.074,2.074,0,0,1,1.216,1.216l2.7,8.753c.549,1.781,1.44,1.781,1.989,0l2.7-8.753a2.074,2.074,0,0,1,1.216-1.216l8.753-2.7c1.781-.549,1.781-1.44,0-1.989Z" fill="none" stroke="#ff023d" stroke-miterlimit="79.84" stroke-width="2" fill-rule="evenodd"/>
    <path id="path167" d="M179.5-116.5h29" fill="none" stroke="#ff023d" stroke-linecap="round" stroke-linejoin="round" stroke-miterlimit="79.84" stroke-width="2" fill-rule="evenodd"/>
  </g>
</svg>
