<svg xmlns="http://www.w3.org/2000/svg" width="91.996" height="67.103" viewBox="0 0 91.996 67.103">
  <g id="Group_17" data-name="Group 17" transform="translate(-0.392 -11.172)">
    <path id="path151" d="M51.957-18.741,41.012-34.192,51.957-49.647H82.871L94.344-34.192,82.871-18.741Z" transform="translate(-2.956 96.016)" fill="none" stroke="#ff023d" stroke-linecap="round" stroke-linejoin="round" stroke-miterlimit="79.84" stroke-width="2" fill-rule="evenodd"/>
    <path id="path153" d="M59.974-26.474l-5.029-7.072,5.029-7.075" transform="translate(-3.961 95.365)" fill="none" stroke="#ff023d" stroke-linecap="round" stroke-linejoin="round" stroke-miterlimit="79.84" stroke-width="2" fill-rule="evenodd"/>
    <path id="path155" d="M78.07-40.621,83.1-33.546,78.07-26.474" transform="translate(-5.628 95.365)" fill="none" stroke="#ff023d" stroke-linecap="round" stroke-linejoin="round" stroke-miterlimit="79.84" stroke-width="2" fill-rule="evenodd"/>
    <path id="path157" d="M73.082-43.726,64.7-23.816" transform="translate(-4.664 95.589)" fill="none" stroke="#ff023d" stroke-linecap="round" stroke-linejoin="round" stroke-miterlimit="79.84" stroke-width="2" fill-rule="evenodd"/>
    <circle id="ellipse159" cx="2" cy="2" r="2" transform="translate(71 21.436) rotate(-90)" fill="#ff023d"/>
    <circle id="ellipse161" cx="2" cy="2" r="2" transform="translate(64 21.436) rotate(-90)" fill="#ff023d"/>
    <circle id="ellipse163" cx="2" cy="2" r="2" transform="translate(58 21.436) rotate(-90)" fill="#ff023d"/>
    <path id="path165" d="M80.373-56.869V-83.308A3.2,3.2,0,0,0,77.18-86.5H4.693A3.2,3.2,0,0,0,1.5-83.308v53a3.2,3.2,0,0,0,3.193,3.193H39.946" transform="translate(-0.108 98.673)" fill="none" stroke="#ff023d" stroke-linecap="round" stroke-linejoin="round" stroke-miterlimit="79.84" stroke-width="2" fill-rule="evenodd"/>
    <path id="path167" d="M12.5-70.5h3.712" transform="translate(-0.901 97.52)" fill="none" stroke="#ff023d" stroke-linecap="round" stroke-linejoin="round" stroke-miterlimit="79.84" stroke-width="2" fill-rule="evenodd"/>
    <path id="path169" d="M22.5-70.5H46.17" transform="translate(-1.622 97.52)" fill="none" stroke="#ff023d" stroke-linecap="round" stroke-linejoin="round" stroke-miterlimit="79.84" stroke-width="2" fill-rule="evenodd"/>
    <path id="path171" d="M12.5-62.5h3.712" transform="translate(-0.901 96.943)" fill="none" stroke="#ff023d" stroke-linecap="round" stroke-linejoin="round" stroke-miterlimit="79.84" stroke-width="2" fill-rule="evenodd"/>
    <path id="path173" d="M22.509-62.5h30.14" transform="translate(-1.623 96.943)" fill="none" stroke="#ff023d" stroke-linecap="round" stroke-linejoin="round" stroke-miterlimit="79.84" stroke-width="2" fill-rule="evenodd"/>
    <path id="path175" d="M12.5-54.5h3.712" transform="translate(-0.901 96.366)" fill="none" stroke="#ff023d" stroke-linecap="round" stroke-linejoin="round" stroke-miterlimit="79.84" stroke-width="2" fill-rule="evenodd"/>
    <path id="path177" d="M22.5-54.5h17.18" transform="translate(-1.622 96.366)" fill="none" stroke="#ff023d" stroke-linecap="round" stroke-linejoin="round" stroke-miterlimit="79.84" stroke-width="2" fill-rule="evenodd"/>
    <path id="path179" d="M12.5-46.5h3.712" transform="translate(-0.901 95.789)" fill="none" stroke="#ff023d" stroke-linecap="round" stroke-linejoin="round" stroke-miterlimit="79.84" stroke-width="2" fill-rule="evenodd"/>
    <path id="path181" d="M22.5-46.5h6.045" transform="translate(-1.622 95.789)" fill="none" stroke="#ff023d" stroke-linecap="round" stroke-linejoin="round" stroke-miterlimit="79.84" stroke-width="2" fill-rule="evenodd"/>
  </g>
</svg>
