<svg xmlns="http://www.w3.org/2000/svg" width="78.262" height="79.102" viewBox="0 0 78.262 79.102">
  <g id="Group_1" transform="translate(1 1)">
    <path id="path83" d="M155.611-148.128c.016.227.023.455.023.685a10.074,10.074,0,0,1-10.071,10.072,10.075,10.075,0,0,1-10.071-10.072,10.075,10.075,0,0,1,10.071-10.072c.166,0,.331,0,.494.012" transform="translate(-111.765 190.381)" fill="none" stroke="#ff033e" stroke-linecap="round" stroke-linejoin="round" stroke-miterlimit="79.84" stroke-width="2" fill-rule="evenodd"/>
    <path id="path85" d="M165.362-155.267a21.955,21.955,0,0,1,1.046,6.718,21.967,21.967,0,0,1-21.957,21.958A21.967,21.967,0,0,1,122.5-148.549a21.966,21.966,0,0,1,21.955-21.957,21.913,21.913,0,0,1,6.628,1.021" transform="translate(-110.651 191.528)" fill="none" stroke="#ff033e" stroke-linecap="round" stroke-linejoin="round" stroke-miterlimit="79.84" stroke-width="2" fill-rule="evenodd"/>
    <path id="path87" d="M174.344-162.745a34.4,34.4,0,0,1,2.717,13.454,34.007,34.007,0,0,1-33.781,34.2,34.007,34.007,0,0,1-33.782-34.2,34.008,34.008,0,0,1,33.782-34.2,33.286,33.286,0,0,1,13.047,2.647" transform="translate(-109.499 192.192)" fill="none" stroke="#ff033e" stroke-linecap="round" stroke-linejoin="round" stroke-miterlimit="79.84" stroke-width="2" fill-rule="evenodd"/>
    <path id="path89" d="M148.18-151.19c3.62-7.934,6.158-14.524,13.638-22.075,2.888-2.916,8.848-8.31,12.422-10.511" transform="translate(-112.881 192.216)" fill="none" stroke="#ff033e" stroke-linecap="round" stroke-linejoin="round" stroke-miterlimit="79.84" stroke-width="2" fill-rule="evenodd"/>
    <path id="path91" d="M163.705-175.224l3.588-9.76L175.31-193l1.514,8.438L179-182.388" transform="translate(-114.217 193.002)" fill="none" stroke="#ff033e" stroke-linecap="round" stroke-linejoin="round" stroke-miterlimit="79.84" stroke-width="2" fill-rule="evenodd"/>
    <path id="path93" d="M148.152-150.609c7.894-3.6,14.429-6.106,21.96-13.528,2.96-2.918,8.4-8.915,10.625-12.536" transform="translate(-112.914 191.818)" fill="none" stroke="#ff033e" stroke-linecap="round" stroke-linejoin="round" stroke-miterlimit="79.84" stroke-width="2" fill-rule="evenodd"/>
    <path id="path95" d="M173.565-165.214l9.761-3.59,8.016-8.018-8.438-1.514-3.065-3.064" transform="translate(-115.08 192.013)" fill="none" stroke="#ff033e" stroke-linecap="round" stroke-linejoin="round" stroke-miterlimit="79.84" stroke-width="2" fill-rule="evenodd"/>
    <path id="path97" d="M148.905-149.154l-2.648,2.647" transform="translate(-112.687 189.646)" fill="none" stroke="#ff033e" stroke-linecap="round" stroke-linejoin="round" stroke-miterlimit="79.84" stroke-width="2" fill-rule="evenodd"/>
  </g>
</svg>
